<svg xmlns="http://www.w3.org/2000/svg" viewBox="0 0 600 450"><defs><style>.a{fill:#738d57;}.a,.ac,.ad,.ae,.af,.ag,.ah,.ai,.aj,.ak,.b,.c,.d,.e,.f,.g,.h,.i,.j,.k,.l,.m,.n,.o,.p,.q,.r,.s,.t,.u,.v,.w,.x{fill-rule:evenodd;}.b{fill:#6f9d52;}.c{fill:#99c26c;}.d{fill:#a0cf7f;}.e{fill:#c0db8f;}.f{fill:#5a753d;}.g{fill:#b3889d;}.h,.z{fill:#734d61;}.i,.y{fill:#96647c;}.aa,.j{fill:#594265;}.k{fill:#a588b9;}.l{fill:#795d88;}.m{fill:#9075a0;}.n{fill:#b8c744;}.o{fill:#d9e256;}.p{fill:#e6e97b;}.q{fill:#dfbda5;}.r{fill:#858686;}.s{fill:#474748;}.t{fill:#6f7273;}.u{fill:#c2987a;}.v{fill:#8b6651;}.w{fill:#e9cbb7;}.x{fill:#d1a1b9;}.ab{fill:#2b2b2b;}.ac{fill:#ececeb;}.ad{fill:#dddddc;}.ae{fill:#ccae2d;}.af{fill:#9d782c;}.ag{fill:#ac923b;}.ah{fill:#755924;}.ai{fill:#e2a940;}.aj{fill:#f2bd67;}.ak{fill:#bb8f2d;}.al{fill:#b38c2e;}</style></defs><title>scene_trait_introversion</title><polygon class="a" points="0 330.85 157.59 293.51 326.19 288.1 342.75 293.32 352.87 297.87 318.67 340.27 250.56 375.89 57.2 383.19 6.92 355.55 0 330.85"/><polygon class="b" points="57.2 383.19 301.7 317.75 330.9 297.22 347.19 308.76 339.74 370.44 154.11 430.28 57.2 383.19"/><polygon class="a" points="327.71 375.11 277.06 394.83 246.28 388.17 189.63 373.9 236.22 365.98 295.49 358.99 327.71 375.11"/><polygon class="c" points="154.11 430.28 246.28 388.17 297.27 370.37 300.78 368.53 312.23 360.88 321.77 343.35 321.39 334 304.1 322.21 322.09 322.21 322.09 382.66 450.84 371.13 522.55 409.85 457.7 439.25 438.95 438.71 429.43 448.87 154.11 430.28"/><polygon class="d" points="322.09 322.21 333.89 322.21 327.86 332.43 372.68 316.97 429.55 332.61 478.52 329.11 600 356.77 585.43 385.6 522.55 409.85 452.17 390.96 322.09 382.66 322.09 322.21"/><polygon class="b" points="273.85 375.45 300.78 368.53 306.68 364.59 349.07 385.8 452.17 390.96 434.28 420.33 457.7 439.25 429.43 448.87 406.89 444.33 380.44 430.61 335.72 429.32 285.61 401.52 246.28 388.17 273.85 375.45"/><polygon class="e" points="600 356.77 472.42 341.81 437.32 327.19 401.44 330.97 351.27 324.84 349.88 291.64 433.73 302.1 491.11 314.22 600 356.77"/><polygon class="f" points="139.48 325.68 56.86 341.45 116.24 367.39 202.19 344.38 139.48 325.68"/><polygon class="g" points="85.62 227.05 122.93 235.24 129.75 235.02 126.89 222.42 90.25 219.88 85.62 227.05"/><polygon class="h" points="90.17 228.78 123.24 243.78 129.75 235.02 126.89 222.42 90.17 228.78"/><polygon class="g" points="129.84 204.3 107.69 341.81 125.04 346.11 138.01 277.59 135.3 227.22 129.84 204.3"/><polygon class="i" points="100.93 171.33 153.35 228.57 162.5 212.7 131.53 160.83 93.81 148.86 100.93 171.33"/><polygon class="i" points="135.3 227.22 125.04 346.11 151.27 339.84 147.07 263.67 135.3 227.22"/><polygon class="g" points="171.78 148.05 147.07 186.86 155.51 201 168.38 162.22 171.78 148.05"/><polygon class="j" points="152.72 12.84 106.89 12.84 40.15 34.48 18.86 54.64 18.86 115.58 42.89 157.93 86.63 159.41 109.64 167.96 131.53 160.83 194.91 115.58 186.32 90.34 194.91 53.57 152.72 12.84"/><polygon class="g" points="157.72 233.09 162.5 212.7 113.29 178.16 111.93 171.54 86.48 159.34 157.72 233.09"/><polygon class="h" points="131.53 160.83 113.29 178.16 86.48 159.34 131.53 160.83"/><polygon class="h" points="171.79 148.05 171.77 148.06 171.63 148.28 155.51 201 177.32 151.44 178.27 141.75 171.79 148.05"/><polygon class="k" points="61.05 13.77 85.62 40.82 151.39 40.82 171.1 40.07 146.61 2.04 61.05 13.77"/><polygon class="l" points="18.86 55.57 58.55 87.3 95.77 97.04 113.29 131.07 18.86 116.51 18.86 55.57"/><polygon class="k" points="113.29 131.07 157.72 124.6 194.91 98.68 194.91 53.57 58.54 87.3 106.89 100.32 113.29 131.07"/><polygon class="m" points="40.15 34.48 72.71 55.57 151.39 40.82 85.62 40.82 61.05 13.77 40.15 34.48"/><polygon class="m" points="166.09 142.61 194.91 93.51 194.91 71.06 58.54 87.3 113.29 131.07 156.66 132.91 165.18 144 166.09 142.61"/><polygon class="l" points="217.71 136.73 194.91 162.22 157.72 139.43 157.72 93.85 194.91 71.06 222.79 101.71 217.71 136.73"/><polygon class="k" points="157.72 93.85 113.29 131.07 159.76 140.68 164.47 136.36 157.72 93.85"/><polygon class="j" points="159.76 140.68 171.82 148.07 174.63 149.79 177.32 151.44 194.91 162.22 232.1 139.43 172.29 114.41 157.72 93.85 159.76 140.68"/><polygon class="k" points="194.91 71.06 207.31 93.85 211.16 118.06 232.1 139.43 232.1 93.85 194.91 71.06"/><polygon class="m" points="172.29 114.41 207.31 93.85 232.1 139.43 194.91 146.33 172.29 114.41"/><polygon class="m" points="40.27 212.53 56.92 238.42 86.38 236.06 99.18 207.81 90.64 191.86 56.35 189.78 40.27 212.53"/><polygon class="j" points="86.38 236.06 56.92 238.42 38.11 211.88 61.38 228.57 99.18 207.81 86.38 236.06"/><polygon class="k" points="90.64 191.86 73.11 199.11 66.86 209.72 38.11 211.88 57.2 183.43 90.64 191.86"/><polygon class="l" points="84.37 215.94 73.11 199.11 38.11 211.88 61.38 228.57 84.37 215.94"/><polygon class="h" points="129.84 204.3 151.27 339.84 157.72 233.09 129.84 204.3"/><polygon class="m" points="146.61 2.04 151.39 40.82 194.91 53.53 146.61 2.04"/><polygon class="n" points="429.68 173.53 421.46 148.88 434.16 160.27 443.78 178.6 461.31 174.93 457.69 181.1 447.9 184.51 433.99 182 429.68 173.53"/><polygon class="o" points="429.68 173.53 438.04 148.79 443.98 154.5 443.37 162.66 449.64 169.34 443.78 178.6 459.42 184.47 457.29 190.51 433.99 182 430.71 178.46 429.68 173.53"/><polygon class="b" points="429.68 173.53 425.78 169.5 423.57 171.88 425.45 176 441.62 197.37 442.66 196.47 433.99 182 429.68 173.53"/><polygon class="p" points="426.73 158.22 433.13 163.36 431.15 169.21 426.73 158.22"/><polygon class="p" points="432.2 173.81 438.34 155.07 441.98 157.56 432.2 173.81"/><polygon class="p" points="446.71 170.55 444.2 167.75 434.02 177.21 444.84 173.81 446.71 170.55"/><polygon class="g" points="400.14 270.53 422.5 234.25 406.16 228.85 371.19 267.65 380.47 275.64 400.14 270.53"/><polygon class="h" points="334.44 264 383.53 268.88 400.14 270.53 352.97 305.88 334.44 264"/><polygon class="l" points="334.44 264 335.04 284.91 329.71 317.81 292.79 273.89 298.26 265.56 334.44 264"/><polygon class="l" points="430.98 384.75 452.17 390.96 413.9 405.66 407.2 402.57 411.19 397.11 416.54 389.08 430.98 384.75"/><polygon class="l" points="360.88 365.29 420.2 340.89 412.94 371.11 404.31 375.45 388.12 377.97 343.59 383.26 333.09 362.47 345.48 356.43 360.88 365.29"/><polygon class="m" points="420.2 340.89 430.98 384.75 418.08 392.81 411.19 397.11 400.69 392.57 404.31 375.45 409.13 364.96 420.2 340.89"/><polygon class="q" points="325.06 133.75 356.65 184.53 374.43 222.37 330.82 248.64 327.19 270.65 298.26 265.56 289.92 247.22 283.63 236.6 278.63 228.47 286.23 214.22 250.6 182.8 257.45 158.67 295.82 133.75 325.06 133.75"/><polygon class="r" points="289.69 224.31 296.65 216 260.76 179.3 270.13 163.22 315.14 147.95 325.06 133.75 333.09 123.57 300.94 110.98 242.81 158.67 243.07 228.59 273.79 233.71 289.69 224.31"/><polygon class="s" points="333.09 123.57 300.94 110.98 315.14 147.95 325.06 133.75 333.09 123.57"/><polygon class="t" points="260.76 179.3 270.13 163.22 242.81 158.67 242.89 180.16 260.76 179.3"/><polygon class="s" points="296.65 216 260.76 179.3 242.89 180.16 242.89 230.05 273.79 233.71 289.69 224.31 296.65 216"/><polygon class="u" points="292.26 182.16 270.13 163.22 260.76 179.3 296.65 216 289.69 224.31 278.63 228.47 283.63 236.6 289.92 247.22 298.26 265.56 310.45 276.27 327.19 270.65 324.65 245.79 292.26 182.16"/><polygon class="q" points="291.57 233.13 278.57 238.65 265.58 225.11 272.27 216.53 289.69 224.31 291.57 233.13"/><polygon class="v" points="272.04 223.06 284.31 226.42 275.95 229.43 272.04 223.06"/><polygon class="v" points="283.58 236.52 283.63 236.6 291.05 249.91 291.57 233.13 283.58 236.52"/><polygon class="j" points="310.32 175.28 310.32 185.46 292.26 182.16 310.32 175.28"/><polygon class="w" points="320.35 167.51 310.32 175.28 331.48 205.55 338.98 201.48 320.35 167.51"/><polygon class="j" points="318.36 157.06 320.35 167.51 337.38 161.19 318.36 157.06"/><polygon class="u" points="326.99 179.62 337.38 161.19 320.14 167.51 326.99 179.62"/><polygon class="u" points="310.32 185.46 331.48 205.55 310.32 175.28 310.32 185.46"/><polygon class="u" points="338.98 201.48 331.48 205.55 338.23 208.33 338.98 201.48"/><polygon class="v" points="320.9 224.51 351.18 211.66 350.08 214.13 323.23 225.55 320.9 224.51"/><polygon class="v" points="374.43 222.37 316.65 249.56 327.19 270.65 336.57 246.81 374.43 222.37"/><polygon class="q" points="406.16 228.85 436.43 216.27 438.84 222.99 422.5 234.25 406.16 228.85"/><polygon class="u" points="422.5 234.25 429.41 211.95 453.47 197.86 437.68 227.66 422.5 234.25"/><polygon class="u" points="406.16 228.85 409.84 210.87 417.6 208.33 419.23 223.42 406.16 228.85"/><polygon class="u" points="236.22 365.98 220.98 375.14 212.56 374.8 222.58 367.06 228.13 365.29 236.22 365.98"/><polygon class="q" points="222.69 353.99 203.59 349.79 194.53 365.43 189.63 373.9 207.83 370.89 236.22 365.98 222.69 353.99"/><polygon class="m" points="298.26 265.56 327.19 270.65 312.06 296.81 303.48 291.24 292.79 273.89 298.26 265.56"/><polygon class="m" points="327.19 270.65 332.93 281.19 334.84 278 334.44 264 332.23 257.86 327.19 270.65"/><polygon class="x" points="334.44 264 349.79 284.66 329.71 317.81 334.44 264"/><polygon class="x" points="292.79 273.89 329.71 317.81 281.5 298.06 292.79 273.89"/><polygon class="g" points="349.79 284.66 354.95 360.88 347.36 390.74 273.85 375.45 281.72 329.13 286.6 300.13 329.71 317.81 349.79 284.66"/><polygon class="k" points="380.95 381.77 404.31 375.45 417.64 417.46 411.9 428.02 399.73 430.28 369.02 398.9 355.21 393.73 380.95 381.77"/><polygon class="l" points="417.64 417.46 441.71 431.6 406.8 437.35 399.73 430.28 410.83 422.34 417.64 417.46"/><polygon class="m" points="379.97 373.61 352.71 382.17 355.21 393.73 352.33 401.52 369.02 398.9 404.31 375.45 391.7 374.49 379.97 373.61"/><polygon class="l" points="335.64 409.64 369.02 398.9 355.21 393.73 337.94 393.4 335.64 409.64"/><polygon class="i" points="379.97 373.61 378.32 363.06 360.62 356.91 349.79 284.66 329.71 317.81 330.82 365.54 379.97 373.61"/><polygon class="i" points="292.79 273.89 247.36 325.62 247.9 339.64 281.72 329.13 292.79 273.89"/><polygon class="h" points="281.72 329.13 247.36 325.62 222.52 353.91 236.22 365.98 281.72 329.13"/><polygon class="u" points="210.76 370.38 203.59 349.79 194.53 365.43 189.63 373.9 207.83 370.89 210.76 370.38"/><rect class="y" x="294.73" y="324.65" width="20.22" height="3"/><polygon class="h" points="295.98 312.17 300.06 324.65 304.13 324.65 299.55 311.25 295.98 312.17"/><rect class="z" x="334.88" y="319.99" width="5.14" height="5.14" transform="translate(-127.2 367.49) rotate(-49.23)"/><rect class="z" x="336.2" y="336.67" width="5.14" height="5.14" transform="translate(-139.36 374.55) rotate(-49.26)"/><rect class="z" x="337.37" y="352.98" width="5.14" height="5.14" transform="translate(-151.33 380.65) rotate(-49.21)"/><polygon class="i" points="379.97 373.61 330.82 365.54 273.85 375.45 335.64 409.64 379.97 373.61"/><polygon class="h" points="360.62 356.91 330.82 365.54 379.97 373.61 420.2 340.89 360.62 356.91"/><polygon class="aa" points="406.8 437.35 409.06 439.54 442.68 434.1 441.71 431.6 406.8 437.35"/><polygon class="aa" points="452.17 390.96 453.57 393.4 414.73 408.3 413.9 405.66 452.17 390.96"/><circle class="ab" cx="311.51" cy="192.35" r="3.89"/><circle class="ab" cx="332.84" cy="180.37" r="3.89"/><polygon class="ac" points="315.44 86.11 358.63 67.9 389.21 76.89 414.14 70.21 462.2 92.31 413.37 88.72 354.26 96.43 315.44 86.11"/><polygon class="ad" points="462.2 92.31 413.37 109.02 380.73 94.88 355.03 104.65 315.44 86.11 355.8 92.57 411.83 82.29 462.2 92.31"/><polygon class="c" points="497.97 326.37 482.48 323.55 454.46 316.67 416.73 322 401.44 330.97 472.42 341.81 497.97 326.37"/><polygon class="v" points="434.79 330.53 431.28 331.52 431.31 328.83 434.83 327.83 434.79 330.53"/><polygon class="v" points="465.13 333.54 461.61 334.54 461.65 331.85 465.17 330.85 465.13 333.54"/><polygon class="ae" points="470.98 332.77 481.39 329.01 491.11 314.22 481.08 296 473.9 297.88 471.42 300.12 470.98 332.77"/><polygon class="af" points="431.28 331.52 427.24 331.12 427.28 328.43 431 326.27 431.31 328.83 431.28 331.52"/><polygon class="af" points="461.61 334.54 457.58 334.13 457.62 331.44 459.68 329.2 461.65 331.85 461.61 334.54"/><polygon class="ae" points="471.42 300.12 450.16 296.74 419.94 295.01 409.84 309.31 419.51 327.66 469.86 324.41 471.42 300.12"/><polygon class="ag" points="470.98 332.77 481.21 317.44 471.42 300.12 432.65 320.68 419.51 327.66 470.98 332.77"/><polygon class="ah" points="461.18 324.71 455.23 314.86 461.43 306.23 470.21 307.1 476.17 316.94 469.96 325.58 461.18 324.71"/><polygon class="ah" points="420.68 320.68 414.73 310.84 420.93 302.2 429.71 303.07 435.66 312.92 429.46 321.56 420.68 320.68"/><polygon class="ah" points="452.54 324.84 438.11 323.4 438.25 313.44 452.67 314.87 452.54 324.84"/><polygon class="ah" points="434.26 302.9 433.76 301.76 434.29 300.73 456.96 302.98 457.46 304.11 456.93 305.15 434.26 302.9"/><polygon class="ag" points="419.94 295.01 430.53 290.19 481.08 296 476.6 297.91 471.42 300.12 419.94 295.01"/><polygon class="ah" points="491.11 314.22 481.21 317.44 470.98 332.77 481.39 329.01 491.11 314.22"/><polygon class="ag" points="468.76 295.33 466.5 297.71 466.37 293.47 468.78 291.51 468.76 295.33"/><polygon class="v" points="472.16 265.93 471.51 264.63 472.2 263.48 473.54 263.61 474.2 264.9 473.51 266.06 472.16 265.93"/><polygon class="v" points="473.07 280.68 472.21 280.59 472.67 265.97 473.01 266.01 473.07 280.68"/><polygon class="v" points="473.28 297.45 472.41 297.68 471.83 276.37 473.56 276.54 473.28 297.45"/><polygon class="ai" points="436.5 290.74 435.7 289.45 430.53 290.19 430.66 294.42 436.63 294.97 436.5 290.74"/><polygon class="aj" points="438.91 288.77 432.94 288.23 430.53 290.19 436.5 290.74 438.91 288.77"/><polygon class="ak" points="456.84 290.42 454.42 292.38 454.55 296.61 460.52 297.16 460.4 292.93 460.4 292.93 462.81 290.96 456.84 290.42"/><polygon class="ai" points="460.4 292.93 460.52 297.16 466.5 297.71 466.37 293.47 464.59 292.22 460.4 292.93 460.4 292.93"/><polygon class="aj" points="462.81 290.96 460.4 292.93 466.37 293.47 468.78 291.51 462.81 290.96"/><polygon class="ak" points="438.91 288.77 436.5 290.74 436.63 294.97 442.6 295.52 442.48 291.28 444.89 289.32 438.91 288.77"/><polygon class="ah" points="444.89 289.32 442.48 291.28 442.6 295.52 454.55 296.61 454.42 292.38 456.84 290.42 444.89 289.32"/><polygon class="ak" points="471.83 276.37 471.54 297.28 472.41 297.68 472.41 276.43 471.83 276.37"/><path class="al" d="M491.6,284.5l-5.54-4.82,5.59-4.23,2.72,2.51-.22-11.47,2,0,.23,14.12-1,.93Zm-2.45-4.72,2.5,2.19,2.25-1.8L491.53,278Z"/><path class="al" d="M502.47,256.26l-5.54-4.83,5.59-4.23,2.72,2.51L505,238.24l2,0,.22,14.12-1,.93ZM500,251.54l2.51,2.18,2.24-1.8-2.36-2.18Z"/><path class="al" d="M507.52,277,502,272.16l5.59-4.23,2.72,2.51L510.07,259l1.95,0,.22,14.13-1,.92Zm-2.46-4.71,2.51,2.18,2.24-1.8-2.36-2.19Z"/><path class="al" d="M518.28,273.61l-5.53-4.82,5.59-4.23,2.71,2.51-.21-11.47,1.75-.74.42,14.82-1,.93Zm-2.45-4.72,2.5,2.18,2.25-1.8-2.37-2.18Z"/><polygon class="al" points="510.07 258.97 522.59 254.87 522.2 257 510.27 260.9 510.07 258.97"/><polygon class="al" points="510.14 262.02 522.65 257.91 522.26 260.05 510.33 263.94 510.14 262.02"/></svg>